<svg width="48" height="48" viewBox="0 0 48 48" fill="none" xmlns="http://www.w3.org/2000/svg">
<rect width="48" height="48" rx="12" fill="#007AFF"/>
<path d="M22.1882 3.98958C16.5973 4.52939 11.8778 8.08443 9.81114 13.3129C9.1171 15.0634 8.82406 16.6366 8.81635 18.6339C8.81635 22.4048 9.96537 25.3275 12.7724 28.6589C13.9368 30.047 14.2993 30.5482 14.6926 31.3425C15.109 32.1677 15.3095 32.9697 15.3789 34.0956C15.4406 35.1366 15.5485 35.4142 15.9495 35.6687C16.2117 35.8307 16.2349 35.8307 23.6457 35.8307H31.0719L31.3187 35.661C31.7428 35.368 31.8277 35.1366 31.8971 34.0647C32.0282 32.0289 32.4523 31.1343 34.3879 28.8131C34.974 28.1114 35.7066 27.1551 36.0151 26.6924C39.6549 21.2327 39.2616 14.2228 35.0357 9.18718C31.9048 5.46249 27.0928 3.51147 22.1882 3.98958ZM25.5273 7.02794C29.3523 7.64487 32.5834 10.0355 34.3185 13.5288C35.7143 16.3281 35.9379 19.351 34.974 22.266C34.4573 23.8392 33.7247 25.0884 32.46 26.5382C30.5475 28.7437 29.599 30.4094 29.1903 32.2833C29.1363 32.5147 29.0592 32.7537 29.0129 32.8C28.9204 32.9234 18.5483 32.9465 18.317 32.8231C18.2245 32.7769 18.1396 32.5918 18.0779 32.3065C17.8312 31.0958 17.1217 29.5612 16.258 28.3427C15.9881 27.9494 15.3635 27.1706 14.8854 26.5999C13.8828 25.4355 13.3816 24.7183 12.9343 23.8392C11.0527 20.0991 11.3535 15.7343 13.744 12.1253C14.3918 11.1382 15.8416 9.68072 16.8132 9.01753C18.3401 7.99189 20.0598 7.30556 21.8258 7.02794C22.6972 6.88913 24.6868 6.88913 25.5273 7.02794Z" fill="white"/>
<path d="M25.5813 11.408C24.787 12.1792 22.7357 14.1842 21.016 15.8576C16.6281 20.1298 16.9289 19.8214 16.9289 20.099C16.9289 20.2455 16.9983 20.4074 17.1217 20.5231L17.3067 20.7159H19.5894C20.8386 20.7159 21.8643 20.7313 21.8643 20.7468C21.8643 20.7699 21.3245 22.2968 20.669 24.1476C20.0135 25.9983 19.4737 27.5638 19.4737 27.6255C19.4737 27.8106 19.8361 28.119 20.0521 28.119C20.2911 28.119 20.2834 28.1267 25.3345 23.1836C27.3086 21.248 29.2057 19.3972 29.5604 19.0579C30.2082 18.4333 30.3239 18.2405 30.239 17.9012C30.1388 17.5079 29.9306 17.4771 27.5863 17.4771H25.4347L26.6532 14.0377C27.5091 11.6394 27.8639 10.5443 27.833 10.4133C27.7713 10.1742 27.5169 9.99683 27.2392 9.99683C27.0542 9.99683 26.7688 10.2359 25.5813 11.408Z" fill="white"/>
<path d="M16.5819 37.5966C15.51 38.0901 15.3943 39.509 16.3737 40.1877L16.713 40.419H23.638H30.563L30.8946 40.1877C31.3187 39.8946 31.5038 39.5707 31.5501 39.0541C31.6041 38.522 31.3727 38.0516 30.9023 37.72L30.563 37.4886L23.7305 37.4732C17.2066 37.4501 16.875 37.4578 16.5819 37.5966Z" fill="white"/>
<path d="M18.7411 42.0847C18.6563 42.2081 19.3041 42.9869 19.8978 43.4882C20.9466 44.3673 22.2807 44.8531 23.6302 44.8531C24.6713 44.8531 25.3114 44.6989 26.2599 44.2208C26.9694 43.8738 27.1621 43.7273 27.8253 43.0641C28.3266 42.5705 28.5734 42.2621 28.5579 42.1772C28.5348 42.0461 28.2495 42.0384 23.6611 42.0153C20.2372 42.0076 18.772 42.023 18.7411 42.0847Z" fill="white"/>
</svg>
